<svg width="48" height="48" viewBox="0 0 48 48" fill="none" xmlns="http://www.w3.org/2000/svg">
<path d="M45.0379 22.8539C45.0379 20.8592 44.5649 19.1836 43.6679 18.0021C42.7504 16.7977 41.3988 16.1172 39.742 16.0006C39.4187 14.198 38.7822 12.5247 37.8853 11.0264C41.3885 8.94595 41.8558 5.80179 41.8752 5.66683C41.9335 5.22192 41.6227 4.81245 41.184 4.75069H41.1817C36.8593 3.28213 32.0341 4.22457 30.7224 4.52995C29.9032 4.07703 27.5483 2.97675 24.012 2.97675C24.0017 2.97675 23.9937 2.97789 23.988 2.97903C23.9789 2.97789 23.9709 2.97675 23.9606 2.97675C20.4231 2.97675 18.0694 4.07703 17.2479 4.52995C15.9419 4.22457 11.111 3.28213 6.79089 4.75069H6.78861C6.34871 4.81245 6.03907 5.22192 6.09734 5.66683C6.11791 5.80065 6.58409 8.9448 10.0873 11.0264C9.18804 12.5247 8.55391 14.198 8.23284 16.0006C6.5738 16.1172 5.22212 16.7977 4.30576 18.0021C3.40883 19.1836 2.93237 20.8592 2.93237 22.8539C2.93237 31.6218 11.3795 44.521 23.1608 45.0974C23.3596 45.1088 23.5595 45.1134 23.7618 45.1157C23.8337 45.118 23.9023 45.1249 23.9731 45.1249C23.9766 45.1249 23.9766 45.1226 23.9789 45.1226C23.9811 45.1226 23.9834 45.1249 23.9857 45.1249C23.9903 45.1249 23.9926 45.1226 23.9949 45.1226C23.9983 45.1226 23.9983 45.1249 23.9983 45.1249C24.0703 45.1249 24.14 45.118 24.2119 45.1157C24.413 45.1134 24.6164 45.1088 24.8107 45.0974C36.593 44.5221 45.0379 31.6218 45.0379 22.8539ZM36.9769 9.68366C36.6604 9.26848 36.3211 8.86817 35.9612 8.48845C37.1198 8.11673 38.3401 7.67525 39.6209 7.1171C39.1479 7.92916 38.34 8.89676 36.9769 9.68366ZM15.3729 5.83496C16.4538 5.99737 17.145 6.17923 17.1645 6.1838C17.3861 6.24328 17.6261 6.20439 17.8169 6.07744C17.8386 6.06142 20.0769 4.60201 23.9594 4.60201H23.9617C23.9697 4.60086 23.9777 4.59972 23.9846 4.59972H23.9869C23.9914 4.59972 23.9994 4.60086 24.0097 4.60201H24.012C27.8568 4.60201 30.1328 6.06371 30.1545 6.07744C30.3442 6.20325 30.5853 6.24328 30.8058 6.1838C30.8264 6.17923 31.5177 5.99737 32.5951 5.83382C34.0953 5.60736 36.3417 5.41635 38.6143 5.78692C37.1997 6.38396 35.8538 6.83116 34.5889 7.21546C33.9502 7.40875 33.3298 7.58603 32.7345 7.75645C32.7014 7.76789 32.6648 7.77818 32.6317 7.78733C28.8531 8.86817 25.759 9.79117 23.9891 13.235H23.9823C22.2124 9.79117 19.1171 8.86817 15.3397 7.78733C15.3066 7.77704 15.2723 7.76675 15.2381 7.75645C14.6416 7.58718 14.0223 7.40761 13.3825 7.21432C12.1176 6.82888 10.7717 6.38396 9.35601 5.78807C11.6263 5.41978 13.8749 5.60964 15.3729 5.83496ZM8.34824 7.11596C9.62908 7.67525 10.8494 8.11673 12.0102 8.4873C11.6503 8.86817 11.3121 9.26848 10.9945 9.68252C9.6268 8.89448 8.82127 7.92916 8.34824 7.11596ZM13.7847 9.02944C14.1286 9.12894 14.4679 9.22731 14.7982 9.32109C19.0155 10.5289 21.8239 11.3444 23.1425 15.4264H23.1448C22.265 15.7844 21.5029 16.6639 20.6494 17.6533C20.6139 17.6979 20.5751 17.7448 20.5351 17.7894C20.4311 15.4882 18.5356 13.6456 16.215 13.6456C13.8292 13.6456 11.8857 15.5911 11.8857 17.9815C11.8857 20.3697 13.827 22.3129 16.2104 22.3152H16.2127H16.215C16.231 22.3152 16.239 22.3129 16.2515 22.3129C18.7904 22.2923 20.4997 20.3045 21.8742 18.7055C22.6123 17.8454 23.451 16.8698 23.9709 16.8698C23.9766 16.8698 23.9834 16.8675 23.988 16.8675C23.9903 16.8675 23.9949 16.8698 24.0006 16.8698C24.5204 16.8698 25.3614 17.8466 26.1018 18.7055C27.4695 20.301 29.1719 22.2797 31.6959 22.3129C31.7188 22.3129 31.7336 22.3152 31.7587 22.3152H31.761H31.7633C34.1468 22.3129 36.0857 20.3697 36.0857 17.9815C36.0857 15.5911 34.1445 13.6456 31.7587 13.6456C29.4359 13.6456 27.5414 15.4882 27.4386 17.7894C27.4009 17.7448 27.3586 17.6979 27.3221 17.6533C26.472 16.6639 25.7099 15.7855 24.8301 15.4264C26.1475 11.3432 28.9605 10.5277 33.1756 9.32109C33.5058 9.22731 33.8451 9.13009 34.189 9.02944C36.6079 11.2758 38.1367 14.3696 38.3515 17.9106C38.3469 17.9392 38.3401 17.9689 38.3401 17.9998C38.3401 21.7776 35.2939 24.8486 31.5496 24.8486C29.838 24.8486 28.363 24.4242 27.2249 23.6625C27.2341 23.4989 27.1987 23.3365 27.1107 23.1936L24.6827 19.1996C24.5376 18.9583 24.2771 18.8107 23.9949 18.8085C23.7161 18.8085 23.4567 18.956 23.3093 19.1973L20.8664 23.1913C20.7796 23.3342 20.743 23.4978 20.7499 23.6602C19.6107 24.4219 18.1368 24.8486 16.4252 24.8486C12.6798 24.8486 9.63137 21.7765 9.63137 17.9998C9.63137 17.9689 9.6268 17.9392 9.62452 17.9106C9.83704 14.3696 11.3647 11.2758 13.7847 9.02944ZM18.9332 17.9827C18.9332 19.4821 17.7152 20.7013 16.215 20.7036H16.2127C14.7159 20.7013 13.499 19.4821 13.499 17.9827C13.499 16.4809 14.7159 15.2617 16.215 15.2617C17.7118 15.2617 18.9332 16.4809 18.9332 17.9827ZM29.0394 17.9827C29.0394 16.4809 30.2574 15.2617 31.7576 15.2617C33.2555 15.2617 34.4735 16.4809 34.4735 17.9827C34.4735 19.4821 33.2578 20.7013 31.7576 20.7036C31.7553 20.7036 31.7553 20.7013 31.753 20.7013C30.2551 20.7013 29.0394 19.481 29.0394 17.9827ZM25.5316 23.7094L25.3488 24.2229L23.9914 28.0453L22.6237 24.2206L22.4409 23.7117L23.6612 21.717L23.9914 21.1737L24.3102 21.701L25.5316 23.7094ZM4.54571 22.8539C4.54571 21.2206 4.90448 19.8847 5.58432 18.9937C6.15904 18.2343 6.98285 17.7917 8.02718 17.6533C8.0009 18.0216 7.98261 18.3921 7.98261 18.7707C7.98261 26.5562 9.86789 34.6985 13.8624 39.8373C8.18942 35.5083 4.54571 28.2203 4.54571 22.8539ZM9.80276 23.1981C11.0322 24.7914 12.8101 25.9305 14.853 26.3206C14.9787 28.8448 15.8288 38.1503 19.2223 42.7207C13.7378 39.7699 10.582 31.4503 9.80276 23.1981ZM23.9846 43.4939C18.4316 43.4939 16.6823 31.9215 16.4058 26.475C16.4103 26.475 16.4172 26.475 16.4252 26.475C18.299 26.475 19.9592 26.0198 21.3063 25.2123L23.2362 30.1853C23.3504 30.5067 23.6555 31.2638 23.9926 31.2638C24.3342 31.2638 24.6358 30.5067 24.7524 30.183L26.6674 25.2146C28.0133 26.0186 29.6712 26.475 31.5462 26.475C31.5531 26.475 31.5576 26.475 31.5645 26.475C31.288 31.9215 29.5455 43.4939 23.9846 43.4939ZM28.7469 42.7219C32.1415 38.1515 32.9939 28.8459 33.1184 26.3217C35.1579 25.9305 36.937 24.7937 38.1687 23.2004C37.3894 31.4503 34.2324 39.7699 28.7469 42.7219ZM34.1068 39.8373C38.1012 34.6985 39.9888 26.5562 39.9888 18.7707C39.9888 18.3933 39.9705 18.0227 39.9442 17.6533C40.9863 17.7917 41.8124 18.2343 42.386 18.9937C43.0669 19.8847 43.4257 21.2206 43.4257 22.8539C43.4269 28.2203 39.7797 35.5083 34.1068 39.8373Z" fill="#1C6152"/>
<path d="M16.4938 16.7623C16.9999 16.7623 17.4124 17.1729 17.4124 17.683C17.4124 18.1931 17.0011 18.606 16.4938 18.606C15.9853 18.606 15.574 18.1931 15.574 17.683C15.574 17.1729 15.9842 16.7623 16.4938 16.7623Z" fill="#1C6152"/>
<path d="M31.1475 17.683C31.1475 17.174 31.5577 16.7623 32.0672 16.7623C32.5734 16.7623 32.9847 17.1729 32.9847 17.683C32.9847 18.1931 32.5746 18.606 32.0672 18.606C31.5588 18.606 31.1475 18.192 31.1475 17.683Z" fill="#1C6152"/>
</svg>
