<svg width="400" height="560" viewBox="0 0 400 560" fill="none" xmlns="http://www.w3.org/2000/svg">
<path d="M127.732 112.42L127.398 108.936L127.732 112.42ZM66.2324 159.42L63.3202 157.479L66.2324 159.42ZM48.7323 199.42L45.263 198.957L48.7323 199.42ZM66.2324 288.42L69.5118 289.643L66.2324 288.42ZM107.732 219.92L110.381 222.208L110.381 222.208L107.732 219.92ZM159.732 186.92L156.66 188.596L159.732 186.92ZM118.732 233.42L115.933 231.319L118.732 233.42ZM76.2324 299.92L72.8316 300.747L76.2324 299.92ZM104.732 342.42L105.653 339.043L104.732 342.42ZM175.732 253.42L173.088 255.712L175.732 253.42ZM118.732 348.92L115.38 347.914L118.732 348.92ZM168.732 401.42L169.634 404.802L168.732 401.42ZM186.732 354.42L190.09 355.408L186.732 354.42ZM212.232 324.92L213.596 321.697L213.596 321.697L212.232 324.92ZM184.232 416.42L180.852 415.512L184.232 416.42ZM258.732 481.42L257.884 484.816C259 485.095 260.182 484.807 261.046 484.046L258.732 481.42ZM292.732 406.42L289.641 404.779L292.732 406.42ZM332.732 336.92L329.478 338.208L332.732 336.92ZM330.733 304.92L331.581 308.316L330.733 304.92ZM347.732 254.92L351.161 254.214L347.732 254.92ZM236.732 200.92L239.656 202.844L236.732 200.92ZM351.732 225.92L348.264 225.451L351.732 225.92ZM347.732 180.92L351.153 180.18L347.732 180.92ZM226.732 152.42L230.225 152.645L226.732 152.42ZM334.732 152.42L337.58 154.454L337.58 154.454L334.732 152.42ZM297.232 83.92L295.752 87.0917L295.752 87.0917L297.232 83.92ZM236.232 313.92L232.737 314.095L236.232 313.92ZM214.232 241.92L210.776 242.473L214.232 241.92ZM265.732 103.42L266.989 106.687L265.732 103.42ZM104.732 162.92L102.64 160.114L102.64 160.114L104.732 162.92ZM115.732 173.42L118.045 176.047L115.732 173.42ZM216.232 419.42L217.742 416.262L216.232 419.42ZM216.732 404.92L220.141 405.715L216.732 404.92ZM226.732 415.42L224.174 413.032L224.174 413.032L226.732 415.42ZM291.232 367.42L289.198 364.572L291.232 367.42ZM296.732 339.92L293.496 341.253L296.732 339.92ZM275.232 352.92L277.057 349.934L277.057 349.934L275.232 352.92ZM189.923 120.129C184.163 118.045 179.793 116.12 175.8 114.407C171.829 112.703 168.164 111.177 164.033 110.045C155.677 107.753 145.805 107.171 127.398 108.936L128.066 115.904C146.16 114.169 155.038 114.837 162.182 116.795C165.801 117.788 169.074 119.138 173.04 120.84C176.984 122.532 181.552 124.545 187.542 126.711L189.923 120.129ZM127.398 108.936C119.573 109.686 113.599 113.067 108.263 117.47C105.621 119.649 103.101 122.108 100.597 124.626C98.0591 127.179 95.5633 129.766 92.8157 132.388L97.6491 137.452C100.485 134.745 103.116 132.02 105.561 129.562C108.039 127.069 110.357 124.817 112.717 122.87C117.386 119.018 122.079 116.478 128.066 115.904L127.398 108.936ZM92.8157 132.388C87.6141 137.353 83.022 139.856 78.0588 143.121C73.0729 146.401 68.1674 150.208 63.3202 157.479L69.1446 161.361C73.2975 155.132 77.3919 151.939 81.9061 148.969C86.4428 145.984 91.8507 142.987 97.6491 137.452L92.8157 132.388ZM63.3202 157.479C58.9235 164.074 54.9615 168.946 52.0161 174.596C48.9306 180.516 46.7966 187.456 45.263 198.957L52.2016 199.883C53.6682 188.884 55.634 182.8 58.2235 177.832C60.9531 172.595 64.241 168.717 69.1446 161.361L63.3202 157.479ZM45.263 198.957C42.7858 217.536 46.7403 241.815 51.4607 260.453C53.8329 269.819 56.4429 277.934 58.6359 283.385C59.709 286.053 60.7692 288.305 61.7418 289.745C61.9957 290.121 62.2939 290.518 62.6374 290.878C62.9443 291.199 63.4852 291.704 64.2591 292.029C65.1595 292.408 66.5033 292.567 67.7899 291.785C68.8667 291.13 69.3231 290.149 69.5118 289.643L62.953 287.197C63.0019 287.066 63.2838 286.332 64.1538 285.803C65.2336 285.147 66.3386 285.31 66.9704 285.576C67.2474 285.692 67.4353 285.823 67.5319 285.897C67.6326 285.974 67.6886 286.032 67.7007 286.044C67.7192 286.064 67.6654 286.009 67.543 285.828C67.0103 285.039 66.1754 283.371 65.1301 280.772C63.0864 275.692 60.5662 267.893 58.2464 258.734C53.5827 240.321 49.9058 217.1 52.2016 199.883L45.263 198.957ZM69.5118 289.643C80.3349 260.617 91.5867 243.97 110.381 222.208L105.084 217.632C85.8782 239.87 74.1299 257.223 62.953 287.197L69.5118 289.643ZM110.381 222.208C117.599 213.851 129.54 204.439 140.113 197.787C145.397 194.463 150.175 191.932 153.712 190.573C155.516 189.881 156.763 189.585 157.49 189.536C158.437 189.472 157.329 189.824 156.66 188.596L162.805 185.244C161.385 182.642 158.561 182.448 157.018 182.552C155.255 182.671 153.24 183.257 151.203 184.039C147.06 185.63 141.846 188.426 136.386 191.862C125.47 198.73 112.911 208.568 105.084 217.632L110.381 222.208ZM156.66 188.596C156.522 188.343 156.462 188.107 156.441 187.934C156.42 187.768 156.435 187.672 156.436 187.67C156.436 187.668 156.427 187.726 156.382 187.855C156.338 187.981 156.267 188.152 156.159 188.37C155.702 189.296 154.815 190.595 153.449 192.267C150.743 195.577 146.682 199.719 142.047 204.273C132.977 213.186 121.642 223.713 115.933 231.319L121.532 235.521C126.823 228.472 137.512 218.543 146.953 209.266C151.575 204.725 155.891 200.339 158.869 196.697C160.344 194.892 161.625 193.109 162.434 191.472C162.84 190.652 163.203 189.719 163.354 188.734C163.508 187.735 163.472 186.468 162.805 185.244L156.66 188.596ZM115.933 231.319C106.899 243.355 95.8441 258.462 87.2283 271.374C82.9268 277.82 79.1862 283.789 76.6051 288.588C75.319 290.978 74.2712 293.169 73.5898 295.034C73.2492 295.967 72.9709 296.897 72.8129 297.781C72.663 298.619 72.5716 299.678 72.8316 300.747L79.6333 299.093C79.7012 299.372 79.6328 299.409 79.7037 299.012C79.7665 298.661 79.9067 298.143 80.165 297.436C80.6814 296.022 81.5532 294.165 82.7697 291.904C85.1939 287.397 88.7909 281.644 93.051 275.259C101.558 262.51 112.521 247.526 121.532 235.521L115.933 231.319ZM72.8316 300.747C75.2178 310.557 80.7532 321.083 86.553 329.365C89.4659 333.525 92.5104 337.212 95.3581 340.027C98.0655 342.702 101.035 345.04 103.812 345.797L105.653 339.043C104.763 338.801 102.899 337.638 100.279 335.048C97.7982 332.597 95.0198 329.253 92.2869 325.35C86.795 317.507 81.747 307.783 79.6333 299.093L72.8316 300.747ZM103.812 345.797C105.391 346.227 106.673 345.559 107.172 345.263C107.79 344.895 108.33 344.414 108.762 343.984C109.649 343.101 110.629 341.876 111.652 340.48C113.724 337.654 116.336 333.616 119.287 328.891C125.271 319.308 132.635 306.923 140.375 294.734C148.092 282.58 155.917 271.055 162.554 263.523C165.915 259.709 168.715 257.22 170.832 256.082C171.873 255.523 172.459 255.449 172.689 255.46C172.773 255.464 172.863 255.453 173.088 255.712L178.377 251.128C176.977 249.512 175.133 248.567 173.017 248.468C171.047 248.376 169.167 249.029 167.518 249.916C164.254 251.671 160.777 254.952 157.302 258.895C150.266 266.879 142.186 278.822 134.465 290.981C126.767 303.105 119.162 315.876 113.35 325.183C110.402 329.904 107.909 333.745 106.006 336.343C105.042 337.658 104.318 338.531 103.824 339.022C103.567 339.278 103.498 339.303 103.595 339.246C103.65 339.213 103.843 339.103 104.152 339.023C104.471 338.941 105.011 338.868 105.653 339.043L103.812 345.797ZM173.088 255.712C172.845 255.433 172.975 255.312 172.975 255.864C172.974 256.412 172.84 257.288 172.448 258.549C171.666 261.063 170.088 264.414 167.819 268.456C163.304 276.501 156.443 286.609 149.093 297.027C141.808 307.352 133.98 318.068 127.798 326.989C124.691 331.471 121.942 335.584 119.817 339.072C117.747 342.468 116.085 345.563 115.38 347.914L122.085 349.926C122.504 348.527 123.721 346.117 125.794 342.714C127.812 339.402 130.471 335.421 133.551 330.976C139.742 322.043 147.399 311.57 154.813 301.062C162.161 290.646 169.212 280.275 173.923 271.883C176.267 267.707 178.131 263.849 179.132 260.626C179.632 259.019 179.974 257.394 179.975 255.868C179.975 254.344 179.63 252.574 178.377 251.128L173.088 255.712ZM115.38 347.914C115.05 349.014 115.299 349.977 115.406 350.349C115.547 350.839 115.751 351.296 115.942 351.674C116.328 352.442 116.876 353.312 117.496 354.215C118.753 356.045 120.565 358.381 122.718 361.003C127.04 366.264 132.923 372.896 138.972 379.358C145.017 385.816 151.281 392.16 156.367 396.831C158.899 399.156 161.209 401.131 163.09 402.505C164.02 403.184 164.949 403.792 165.812 404.219C166.243 404.432 166.755 404.648 167.309 404.788C167.822 404.916 168.675 405.058 169.634 404.802L167.831 398.038C168.488 397.863 168.958 397.984 169.013 397.998C169.109 398.022 169.087 398.029 168.914 397.944C168.57 397.774 168.011 397.43 167.217 396.851C165.651 395.707 163.566 393.938 161.101 391.675C156.195 387.169 150.064 380.964 144.082 374.574C138.103 368.187 132.326 361.671 128.127 356.559C126.02 353.994 124.355 351.837 123.266 350.252C122.714 349.448 122.372 348.88 122.194 348.527C122.103 348.345 122.107 348.321 122.134 348.416C122.149 348.468 122.188 348.615 122.206 348.832C122.223 349.037 122.232 349.437 122.085 349.926L115.38 347.914ZM169.634 404.802C171.719 404.246 173.267 402.662 174.35 401.249C175.513 399.732 176.587 397.816 177.575 395.739C179.558 391.569 181.435 386.237 183.1 380.884C184.774 375.504 186.271 369.979 187.476 365.377C188.701 360.697 189.585 357.125 190.09 355.408L183.375 353.433C182.831 355.281 181.878 359.117 180.704 363.605C179.509 368.171 178.043 373.576 176.416 378.805C174.782 384.06 173.021 389.016 171.253 392.732C170.366 394.598 169.536 396.024 168.796 396.989C167.976 398.058 167.621 398.094 167.831 398.038L169.634 404.802ZM190.09 355.408C192.366 347.671 197.645 340.503 202.82 335.349C205.391 332.789 207.841 330.822 209.728 329.593C210.684 328.97 211.401 328.599 211.855 328.42C212.085 328.329 212.147 328.328 212.075 328.339C212.059 328.341 211.547 328.43 210.869 328.143L213.596 321.697C212.582 321.268 211.616 321.33 211.042 321.416C210.412 321.51 209.811 321.702 209.287 321.908C208.233 322.324 207.079 322.964 205.909 323.727C203.544 325.266 200.724 327.557 197.881 330.389C192.227 336.019 186.099 344.169 183.375 353.433L190.09 355.408ZM210.869 328.143C211.081 328.233 211.468 328.416 211.682 329.655C211.921 331.03 211.807 333.148 211.183 336.104C209.946 341.964 207.006 349.814 203.252 358.824C195.875 376.529 185.432 398.463 180.852 415.512L187.613 417.328C192.032 400.877 202.09 379.812 209.713 361.516C213.459 352.526 216.644 344.126 218.032 337.549C218.721 334.286 219.044 331.138 218.579 328.459C218.091 325.643 216.633 322.982 213.596 321.697L210.869 328.143ZM180.852 415.512C179.671 419.911 181.738 423.994 184.354 427.263C187.036 430.614 190.93 433.92 195.062 437.076C199.202 440.239 203.89 443.477 208.137 446.54C212.464 449.661 216.377 452.631 219.309 455.445L224.156 450.395C220.838 447.209 216.569 443.991 212.232 440.863C207.813 437.676 203.354 434.602 199.311 431.514C195.261 428.42 191.94 425.539 189.82 422.89C187.635 420.159 187.317 418.43 187.613 417.328L180.852 415.512ZM219.309 455.445C222.37 458.383 225.186 461.353 228.012 464.297C230.815 467.217 233.628 470.113 236.577 472.77C242.511 478.117 249.134 482.628 257.884 484.816L259.581 478.025C252.331 476.212 246.704 472.473 241.263 467.57C238.524 465.102 235.869 462.373 233.062 459.45C230.279 456.55 227.345 453.457 224.156 450.395L219.309 455.445ZM261.046 484.046C272.302 474.13 277.283 461.658 281.325 448.618C285.417 435.417 288.527 421.811 295.824 408.061L289.641 404.779C281.937 419.295 278.547 433.938 274.639 446.546C270.681 459.315 266.163 470.21 256.419 478.794L261.046 484.046ZM295.824 408.061C302.469 395.541 313.416 381.586 322.498 368.693C326.962 362.355 330.988 356.246 333.586 350.875C334.887 348.185 335.896 345.547 336.394 343.061C336.889 340.583 336.927 338.007 335.987 335.632L329.478 338.208C329.75 338.895 329.87 339.987 329.53 341.687C329.191 343.377 328.446 345.424 327.284 347.827C324.955 352.642 321.222 358.35 316.775 364.662C308.037 377.067 296.561 391.74 289.641 404.779L295.824 408.061ZM335.987 335.632C334.555 332.016 331.941 328.582 328.74 325.364C325.516 322.123 321.536 318.943 317.159 315.861C308.413 309.702 297.776 303.726 287.75 298.277C277.625 292.774 268.217 287.856 261.581 283.678C258.241 281.576 255.857 279.814 254.48 278.407C253.786 277.697 253.544 277.272 253.485 277.128C253.465 277.079 253.613 277.486 253.363 277.985L247.102 274.855C246.238 276.582 246.42 278.347 247.007 279.78C247.554 281.117 248.492 282.296 249.477 283.302C251.458 285.327 254.429 287.448 257.851 289.602C264.739 293.938 274.482 299.033 284.408 304.427C294.433 309.876 304.748 315.683 313.129 321.584C317.315 324.532 320.942 327.45 323.777 330.301C326.636 333.174 328.534 335.824 329.478 338.208L335.987 335.632ZM253.363 277.985C253.06 278.591 252.736 277.984 254.964 278.04C256.923 278.089 259.753 278.664 263.356 279.767C270.498 281.952 279.702 285.894 289.077 290.223C298.483 294.566 307.697 299.124 315.186 302.649C318.876 304.387 322.138 305.869 324.671 306.878C325.93 307.38 327.09 307.799 328.074 308.072C328.565 308.208 329.084 308.328 329.593 308.395C330.039 308.453 330.782 308.515 331.581 308.316L329.884 301.525C330.35 301.408 330.634 301.471 330.503 301.454C330.434 301.445 330.258 301.413 329.945 301.326C329.319 301.153 328.43 300.841 327.263 300.376C324.943 299.451 321.845 298.048 318.168 296.316C310.921 292.905 301.375 288.191 292.011 283.868C282.615 279.529 273.039 275.409 265.405 273.073C261.62 271.915 258.063 271.116 255.139 271.042C252.484 270.976 248.78 271.5 247.102 274.855L253.363 277.985ZM331.581 308.316C333.587 307.814 335.218 306.423 336.463 305.043C337.771 303.593 339.01 301.747 340.164 299.71C342.477 295.625 344.672 290.359 346.499 284.866C348.33 279.359 349.832 273.501 350.717 268.192C351.584 262.991 351.926 257.932 351.161 254.214L344.304 255.626C344.799 258.029 344.647 262.032 343.812 267.041C342.996 271.942 341.59 277.444 339.857 282.657C338.118 287.884 336.091 292.697 334.073 296.261C333.06 298.049 332.107 299.42 331.264 300.356C330.357 301.362 329.878 301.526 329.884 301.525L331.581 308.316ZM351.161 254.214C350.772 252.325 349.707 250.673 348.481 249.281C347.232 247.864 345.623 246.499 343.8 245.187C340.154 242.563 335.281 239.885 329.733 237.216C318.615 231.867 304.246 226.305 290.287 221.09C276.246 215.845 262.657 210.966 252.83 206.909C247.895 204.871 244.102 203.118 241.733 201.701C240.503 200.966 239.94 200.484 239.762 200.281C239.678 200.184 239.889 200.382 240.005 200.86C240.156 201.48 240.062 202.228 239.656 202.844L233.808 198.996C233.093 200.083 232.918 201.345 233.205 202.519C233.457 203.551 234.018 204.343 234.486 204.881C235.413 205.945 236.761 206.885 238.139 207.709C240.986 209.411 245.193 211.329 250.158 213.379C260.132 217.497 273.947 222.459 287.837 227.648C301.81 232.867 315.902 238.33 326.698 243.524C332.107 246.126 336.555 248.597 339.71 250.868C341.287 252.004 342.448 253.023 343.229 253.909C344.031 254.82 344.256 255.39 344.304 255.626L351.161 254.214ZM239.656 202.844C240.328 201.823 241.901 200.828 245.428 200.586C248.884 200.348 253.465 200.901 258.954 202.128C269.897 204.575 283.49 209.472 296.984 214.636C310.347 219.749 323.667 225.146 333.675 228.378C338.645 229.983 343.107 231.161 346.494 231.438C348.148 231.573 349.962 231.536 351.543 230.922C353.386 230.207 354.891 228.683 355.201 226.389L348.264 225.451C348.288 225.276 348.38 224.99 348.607 224.721C348.819 224.472 349.013 224.395 349.011 224.396C348.91 224.435 348.362 224.567 347.064 224.461C344.547 224.255 340.746 223.306 335.826 221.717C326.054 218.561 313.082 213.3 299.485 208.098C286.02 202.946 271.987 197.869 260.481 195.297C254.746 194.015 249.397 193.296 244.948 193.602C240.569 193.903 236.262 195.267 233.808 198.996L239.656 202.844ZM355.201 226.389C357.8 207.158 353.058 188.991 351.153 180.18L344.311 181.66C346.292 190.818 350.665 207.682 348.264 225.451L355.201 226.389ZM351.153 180.18C350.276 176.121 346.557 173.544 342.816 171.812C338.844 169.973 333.601 168.518 327.71 167.306C315.895 164.875 300.62 163.257 285.722 161.775C270.712 160.282 256.102 158.929 245.277 157.04C239.836 156.09 235.612 155.047 232.847 153.888C231.454 153.304 230.681 152.791 230.313 152.439C230.004 152.142 230.251 152.243 230.225 152.645L223.24 152.195C223.095 154.439 224.152 156.23 225.468 157.491C226.726 158.697 228.394 159.612 230.142 160.344C233.662 161.819 238.527 162.968 244.073 163.935C255.222 165.881 270.171 167.263 285.03 168.741C300.001 170.23 314.904 171.818 326.3 174.162C332.014 175.338 336.635 176.664 339.875 178.164C343.347 179.772 344.189 181.094 344.311 181.66L351.153 180.18ZM230.225 152.645C230.196 153.092 229.799 152.414 232.497 151.584C234.925 150.837 238.629 150.408 243.447 150.303C253.005 150.094 265.833 151.169 278.985 152.549C292.01 153.915 305.423 155.589 315.714 156.495C320.869 156.948 325.406 157.226 328.847 157.167C330.553 157.139 332.137 157.026 333.449 156.762C334.105 156.63 334.807 156.438 335.467 156.137C336.1 155.848 336.944 155.345 337.58 154.454L331.884 150.386C332.063 150.135 332.245 149.978 332.362 149.892C332.477 149.807 332.554 149.772 332.56 149.769C332.567 149.766 332.533 149.782 332.444 149.809C332.357 149.835 332.233 149.866 332.068 149.9C331.366 150.041 330.269 150.142 328.728 150.168C325.673 150.22 321.44 149.971 316.328 149.522C306.086 148.62 292.979 146.978 279.715 145.587C266.578 144.209 253.347 143.085 243.294 143.304C238.306 143.413 233.816 143.855 230.439 144.894C227.332 145.849 223.518 147.874 223.24 152.195L230.225 152.645ZM337.58 154.454C339.095 152.334 339.629 149.638 339.696 146.981C339.765 144.267 339.355 141.199 338.612 137.977C337.122 131.524 334.186 123.995 330.341 116.562C326.49 109.117 321.662 101.64 316.311 95.3155C310.993 89.0315 304.982 83.6743 298.713 80.7484L295.752 87.0917C300.733 89.4158 305.972 93.9336 310.967 99.8371C315.928 105.7 320.475 112.723 324.124 119.778C327.779 126.846 330.467 133.816 331.791 139.551C332.453 142.422 332.747 144.87 332.698 146.804C332.648 148.796 332.245 149.881 331.884 150.386L337.58 154.454ZM298.713 80.7484C287.236 75.3926 272.205 73.762 258.041 74.7918C243.897 75.8201 230.003 79.5471 220.831 85.4816L224.634 91.3586C232.462 86.293 245.068 82.7534 258.549 81.7733C272.01 80.7947 285.729 82.4141 295.752 87.0917L298.713 80.7484ZM220.831 85.4816C211.851 91.2923 207.315 96.7707 202.951 102.483C198.675 108.08 194.635 113.785 186.461 120.757L191.004 126.083C199.829 118.555 204.29 112.26 208.514 106.732C212.649 101.319 216.614 96.5478 224.634 91.3586L220.831 85.4816ZM262.23 481.545C262.996 460.109 257.689 425.859 252.095 393.348C246.446 360.512 240.516 329.495 239.728 313.745L232.737 314.095C233.552 330.403 239.622 362.136 245.197 394.535C250.827 427.26 255.969 460.732 255.235 481.295L262.23 481.545ZM239.728 313.745C238.947 298.119 234.07 284.786 229.127 273.004C224.092 261 219.242 251.077 217.688 241.367L210.776 242.473C212.503 253.264 217.903 264.34 222.672 275.711C227.535 287.304 232.018 299.721 232.737 314.095L239.728 313.745ZM217.688 241.367C210.195 194.535 204.141 167.118 192.112 122.509L185.353 124.331C197.324 168.722 203.325 195.9 210.776 242.473L217.688 241.367ZM266.989 106.687C269.781 105.613 273.165 105.066 276.236 105.228C279.405 105.395 281.635 106.273 282.758 107.395L287.707 102.445C284.829 99.5674 280.56 98.4456 276.604 98.2374C272.55 98.024 268.184 98.7272 264.476 100.153L266.989 106.687ZM282.758 107.395C284.03 108.668 285.348 111.602 285.983 114.896C286.286 116.466 286.386 117.885 286.311 118.948C286.222 120.215 285.943 120.26 286.258 119.945L291.207 124.895C292.772 123.33 293.18 121.063 293.294 119.439C293.423 117.612 293.241 115.562 292.857 113.569C292.117 109.738 290.435 105.173 287.707 102.445L282.758 107.395ZM286.258 119.945C286.934 119.269 287.685 119.193 287.921 119.189C288.136 119.186 288.156 119.23 287.894 119.144C287.383 118.976 286.531 118.565 285.352 117.837C283.045 116.414 280.133 114.187 277.321 111.768C274.512 109.352 271.944 106.866 270.299 104.977C269.441 103.993 268.996 103.354 268.843 103.06C268.734 102.854 268.948 103.157 268.964 103.766C268.973 104.131 268.912 104.749 268.521 105.395C268.108 106.08 267.512 106.485 266.989 106.687L264.476 100.153C263.765 100.427 263.033 100.943 262.531 101.773C262.052 102.566 261.951 103.364 261.966 103.944C261.993 104.981 262.399 105.845 262.642 106.309C263.191 107.357 264.085 108.501 265.021 109.575C266.961 111.803 269.797 114.529 272.756 117.075C275.713 119.618 278.935 122.103 281.676 123.795C283.022 124.625 284.422 125.372 285.711 125.795C286.349 126.004 287.156 126.201 288.022 126.189C288.909 126.176 290.174 125.928 291.207 124.895L286.258 119.945ZM144.298 139.29C143.648 138.965 143.061 138.92 142.81 138.91C142.51 138.897 142.259 138.923 142.1 138.944C141.781 138.987 141.495 139.061 141.298 139.117C140.884 139.234 140.42 139.403 139.96 139.583C139.018 139.951 137.78 140.494 136.354 141.154C133.487 142.481 129.684 144.364 125.606 146.495C117.514 150.724 108.044 156.084 102.64 160.114L106.825 165.726C111.74 162.06 120.769 156.921 128.848 152.699C132.855 150.604 136.555 148.774 139.294 147.506C140.671 146.869 141.763 146.394 142.512 146.101C142.897 145.95 143.119 145.876 143.211 145.85C143.266 145.834 143.188 145.861 143.03 145.882C142.951 145.893 142.768 145.914 142.524 145.904C142.329 145.896 141.786 145.86 141.167 145.551L144.298 139.29ZM102.64 160.114C96.4747 164.712 89.2684 170.617 84.1353 176.221C81.5914 178.998 79.3667 181.903 78.1015 184.692C76.8696 187.407 76.1538 190.982 78.4324 194.02L84.0324 189.82C84.0022 189.78 83.9408 189.704 83.9482 189.415C83.9573 189.062 84.0765 188.465 84.4762 187.584C85.2875 185.796 86.9297 183.533 89.2971 180.949C93.9864 175.829 100.78 170.234 106.825 165.726L102.64 160.114ZM78.4324 194.02C79.7856 195.824 81.8615 196.057 83.0746 196.034C84.4087 196.009 85.8494 195.67 87.2257 195.227C90.0232 194.326 93.4312 192.705 96.9596 190.746C104.044 186.813 112.225 181.172 118.045 176.047L113.419 170.793C108.024 175.545 100.267 180.904 93.5619 184.626C90.1955 186.495 87.2456 187.866 85.0807 188.563C83.9758 188.919 83.2842 189.029 82.9424 189.036C82.4794 189.044 83.3355 188.891 84.0324 189.82L78.4324 194.02ZM118.045 176.047C122.991 171.692 130.125 163.907 135.828 157.248C138.696 153.899 141.256 150.771 143.051 148.426C143.938 147.266 144.687 146.235 145.196 145.44C145.434 145.069 145.712 144.608 145.911 144.148C145.993 143.958 146.188 143.489 146.251 142.895C146.294 142.481 146.398 140.34 144.298 139.29L141.167 145.551C139.129 144.531 139.258 142.464 139.289 142.163C139.318 141.888 139.376 141.684 139.407 141.586C139.441 141.476 139.472 141.401 139.486 141.369C139.519 141.292 139.493 141.367 139.302 141.665C138.953 142.209 138.347 143.055 137.492 144.171C135.802 146.379 133.331 149.402 130.511 152.695C124.838 159.319 117.972 166.784 113.419 170.793L118.045 176.047ZM217.742 416.262C217.404 416.101 217.446 416.041 217.436 416.006C217.37 415.756 217.335 415.17 217.585 414.035C217.828 412.933 218.243 411.701 218.746 410.24C219.219 408.865 219.781 407.257 220.141 405.715L213.324 404.125C213.063 405.246 212.635 406.486 212.127 407.961C211.649 409.35 211.093 410.967 210.749 412.53C210.412 414.06 210.177 415.953 210.673 417.811C211.227 419.884 212.594 421.56 214.723 422.578L217.742 416.262ZM220.141 405.715C220.51 404.13 220.788 402.348 221.048 400.789C221.322 399.151 221.584 397.71 221.93 396.5C222.293 395.235 222.641 394.623 222.855 394.384C222.893 394.341 222.76 394.389 222.845 394.399L223.62 387.442C221.141 387.165 219.083 388.098 217.632 389.722C216.357 391.151 215.654 392.991 215.201 394.574C214.732 396.212 214.414 398.017 214.144 399.636C213.86 401.333 213.629 402.818 213.324 404.125L220.141 405.715ZM222.845 394.399C223.617 394.485 224.43 394.974 225.165 396.774C225.909 398.595 226.232 401.07 226.232 403.42H233.232C233.232 400.611 232.869 397.122 231.645 394.126C230.412 391.108 227.975 387.927 223.62 387.442L222.845 394.399ZM226.232 403.42C226.232 408.802 226.354 410.696 224.174 413.032L229.291 417.808C233.703 413.081 233.232 408.038 233.232 403.42H226.232ZM224.174 413.032C222.76 414.547 221.488 415.626 220.34 416.172C219.349 416.644 218.594 416.67 217.742 416.262L214.723 422.578C217.83 424.062 220.828 423.692 223.348 422.493C225.712 421.368 227.711 419.501 229.291 417.808L224.174 413.032ZM293.267 370.268C294.196 369.605 294.94 368.682 295.516 367.831C296.124 366.933 296.699 365.881 297.229 364.751C298.291 362.488 299.268 359.708 300.003 356.769C301.421 351.097 302.163 343.916 299.969 338.587L293.496 341.253C294.802 344.424 294.544 349.743 293.212 355.071C292.572 357.632 291.737 359.977 290.892 361.777C290.469 362.678 290.068 363.392 289.719 363.908C289.338 364.471 289.144 364.61 289.198 364.572L293.267 370.268ZM299.969 338.587C299.207 336.737 297.768 335.399 296.32 334.433C294.848 333.452 293.093 332.673 291.272 332.04C287.628 330.772 283.202 329.912 278.968 329.318C270.475 328.127 262.098 327.92 260.732 327.92V334.92C261.867 334.92 269.906 335.116 277.996 336.251C282.053 336.82 285.96 337.604 288.973 338.651C290.48 339.176 291.634 339.722 292.437 340.258C293.264 340.809 293.466 341.179 293.496 341.253L299.969 338.587ZM260.732 327.92C259.14 327.92 257.265 328.213 255.81 329.465C254.152 330.891 253.822 332.844 254.003 334.409C254.172 335.866 254.788 337.275 255.463 338.482C256.166 339.737 257.08 341.03 258.097 342.298C262.102 347.29 268.55 352.938 273.407 355.907L277.057 349.934C272.914 347.402 267.073 342.3 263.558 337.918C262.694 336.841 262.027 335.876 261.572 335.063C261.089 334.202 260.972 333.732 260.957 333.603C260.954 333.582 260.99 334.242 260.375 334.772C259.961 335.127 259.805 334.92 260.732 334.92V327.92ZM273.407 355.907C274.565 356.614 275.696 357.876 276.901 359.684C278.169 361.587 279.079 363.365 280.364 365.489C281.451 367.283 282.933 369.546 284.99 370.826C286.137 371.54 287.531 371.999 289.114 371.884C290.654 371.772 292.043 371.142 293.267 370.268L289.198 364.572C288.697 364.93 288.519 364.909 288.608 364.902C288.741 364.893 288.8 364.953 288.689 364.883C288.229 364.597 287.499 363.757 286.352 361.863C285.404 360.298 284.06 357.804 282.727 355.803C281.331 353.708 279.517 351.437 277.057 349.934L273.407 355.907Z" fill="black"/>
</svg>
