<svg width="400" height="560" viewBox="0 0 400 560" fill="none" xmlns="http://www.w3.org/2000/svg">
<path d="M296.511 545C302.011 486.954 291.511 457.932 277.51 403.905M277.51 403.905C260.509 388.277 252.181 382.435 231.507 370.863M277.51 403.905C270.452 376.668 258.509 358.361 248.508 332.911M231.507 370.863C220.007 371.31 208.124 367.279 198.006 362.38C185.867 356.503 175.004 340.055 175.004 340.055C175.004 340.055 197.243 344.416 210.006 352.557C217.007 357.022 226.007 363.273 231.507 370.863ZM248.508 332.911C255.509 317.283 256.509 315.944 268.009 302.995M248.508 332.911C229.507 305.674 222.507 286.921 204.006 258.345M268.009 302.995C271.329 293.928 271.872 286.986 277.51 278.884C282.903 271.134 296.011 262.363 296.011 262.363C296.011 262.363 297.411 276.45 292.011 284.688C286.387 293.267 276.797 296.892 268.009 302.995ZM204.006 258.345C184.505 253.879 176.504 243.61 161.003 235.126M204.006 258.345C200.686 249.277 198.825 244.194 195.505 235.126M161.003 235.126C147.92 229.547 138.742 229.016 127.502 220.838C116.932 213.149 101 194.048 101 194.048C101 194.048 127.727 198.746 139.002 206.55C150.603 214.58 152.997 224.141 161.003 235.126ZM195.505 235.126C202.006 227.536 203.506 220.392 210.006 213.248M195.505 235.126C185.937 203.042 175.004 186.011 171.004 152.97M210.006 213.248C219.965 207.668 228.237 207.21 235.508 198.96C243.108 190.335 244.008 171.723 244.008 171.723C244.008 171.723 229.999 181.751 223.007 190.029C216.171 198.123 215.083 204.18 210.006 213.248ZM171.004 152.97C160.503 144.04 155.003 136.449 146.003 127.519M171.004 152.97C175.004 135.556 170.504 123.054 177.004 106.533M146.003 127.519C137.411 124.38 131.179 124.739 124.001 119.482C114.88 112.801 105 91.7987 105 91.7987C105 91.7987 125.764 100.516 134.502 108.319C140.002 113.231 142.292 120.893 146.003 127.519ZM177.004 106.533C176.004 88.2266 180.883 77.3713 188.505 60.0969C196.063 42.967 216.507 15 216.507 15C216.507 15 215.08 60.0969 210.006 70.3665C202.506 85.5476 191.505 94.4777 177.004 106.533Z" stroke="black" stroke-width="7" stroke-linejoin="round"/>
</svg>
