<svg width="400" height="560" viewBox="0 0 400 560" fill="none" xmlns="http://www.w3.org/2000/svg">
<path d="M142.121 240.44C137.473 238.398 130.621 236.94 130.121 235.44L134.121 225.94C136.621 225.94 148.037 228.856 156.121 230.94C166.945 233.732 169.621 238.94 183.121 240.44C195.193 241.782 207.004 241.049 218.121 245.94C230.621 251.44 255.621 259.94 248.121 259.94C245.121 259.94 221.524 253.713 205.121 257.44C194.121 259.94 183.621 259.44 172.621 255.94C158.641 251.492 155.553 246.342 142.121 240.44Z" stroke="black" stroke-width="7"/>
<path d="M132.121 171.44C137.478 183.118 142.854 205.915 144.621 203.44C147.121 199.94 151.059 191.94 150.621 188.44C149.621 180.44 142.847 169.376 138.121 157.44C132 141.979 131.621 130.94 126.621 116.44C117.903 91.1562 109.121 76.9404 110.121 50.4404C110.324 45.059 104.228 102.472 111.121 126.94C116.332 145.437 124.109 153.974 132.121 171.44Z" stroke="black" stroke-width="7"/>
<path d="M177.912 205.398C165.16 203.834 141.806 205.624 143.628 203.189C146.206 199.745 152.635 193.568 156.103 192.923C164.029 191.451 176.627 194.551 189.434 195.435C206.024 196.58 217.288 190.572 232.621 190.94C259.359 191.582 279.172 195.929 304.121 186.94C309.188 185.115 252.091 211.065 226.685 211.916C207.479 212.559 196.985 207.737 177.912 205.398Z" stroke="black" stroke-width="7"/>
<path d="M101.621 242.94C108.121 252.44 119.621 259.44 119.621 259.44L123.121 250.44C123.121 250.44 112.621 240.44 104.621 226.44C98.673 216.031 98.2784 205.632 95.6214 193.941C93.1213 182.94 84.7691 176.995 79.1213 165.44C69.8462 146.465 62.7868 109.999 61.1213 114.44C59.6214 118.44 58.1212 147.94 59.6213 159.44C61.5319 174.087 72.1213 184.946 75.1213 193.941C79.0623 205.756 76.6213 217.441 82.6213 224.941C87.9952 231.658 95.8497 234.505 101.621 242.94Z" stroke="black" stroke-width="7"/>
<path d="M166.638 156.647C157.266 168.281 154.121 181.44 153.121 186.44C151.893 192.583 161.621 185.44 165.121 181.94C169.437 177.625 174.361 167.291 188.827 151.848C199.582 140.366 212.621 134.877 226.365 126.319C239.296 118.268 243.391 106.366 255.724 94.6503C275.978 75.4097 319.949 46.5739 313.621 46.9404C307.923 47.2706 269.256 63.4846 255.277 70.7014C237.472 79.8927 228.066 96.5989 217.887 104.213C204.516 114.216 188.673 117.273 181.633 127.394C175.327 136.46 174.961 146.316 166.638 156.647Z" stroke="black" stroke-width="7"/>
<path d="M83.1224 514.524C83.1684 516.456 84.7722 517.985 86.7047 517.939C88.6371 517.893 90.1664 516.29 90.1204 514.357L83.1224 514.524ZM91.6214 372.94L88.1471 372.517L91.6214 372.94ZM155.725 189.558C156.618 187.843 155.953 185.73 154.238 184.836C152.524 183.943 150.41 184.609 149.517 186.323L155.725 189.558ZM86.6214 514.44C90.1204 514.357 90.1204 514.357 90.1204 514.357C90.1204 514.356 90.1203 514.355 90.1203 514.354C90.1203 514.352 90.1202 514.348 90.1201 514.343C90.1198 514.333 90.1195 514.319 90.119 514.299C90.1181 514.259 90.1168 514.199 90.115 514.12C90.1115 513.961 90.1063 513.724 90.0999 513.411C90.087 512.786 90.069 511.859 90.0486 510.659C90.0077 508.259 89.9571 504.762 89.9181 500.386C89.8402 491.632 89.809 479.362 89.9961 465.299C90.3707 437.144 91.6192 401.921 95.0958 373.363L88.1471 372.517C84.6236 401.46 83.3721 436.987 82.9967 465.206C82.8088 479.331 82.8401 491.655 82.9184 500.448C82.9576 504.845 83.0085 508.361 83.0496 510.778C83.0702 511.987 83.0884 512.922 83.1014 513.555C83.1079 513.872 83.1131 514.113 83.1167 514.275C83.1185 514.357 83.1199 514.418 83.1209 514.46C83.1214 514.481 83.1217 514.496 83.122 514.507C83.1221 514.512 83.1222 514.516 83.1223 514.519C83.1223 514.521 83.1223 514.522 83.1223 514.522C83.1224 514.523 83.1224 514.524 86.6214 514.44ZM95.0958 373.363C103.114 307.502 124.857 248.806 155.725 189.558L149.517 186.323C118.386 246.075 96.2949 305.589 88.1471 372.517L95.0958 373.363Z" fill="black"/>
</svg>
